<svg width="24" height="34" viewBox="0 0 24 34" fill="none" xmlns="http://www.w3.org/2000/svg">
<g id="FIgma Logo">
<path id="Vector" fill-rule="evenodd" clip-rule="evenodd" d="M12 17.0002C12 13.8706 14.5371 11.3335 17.6667 11.3335C20.7962 11.3335 23.3333 13.8706 23.3333 17.0002C23.3333 20.1297 20.7962 22.6668 17.6667 22.6668C14.5371 22.6668 12 20.1297 12 17.0002Z" fill="#1ABCFE"/>
<path id="Vector_2" fill-rule="evenodd" clip-rule="evenodd" d="M0.666992 28.3332C0.666992 25.2036 3.20404 22.6665 6.33366 22.6665H12.0003V28.3332C12.0003 31.4627 9.46322 33.9998 6.33366 33.9998C3.20404 33.9998 0.666992 31.4627 0.666992 28.3332Z" fill="#0ACF83"/>
<path id="Vector_3" fill-rule="evenodd" clip-rule="evenodd" d="M12 0V11.3333H17.6667C20.7962 11.3333 23.3333 8.79623 23.3333 5.66667C23.3333 2.53705 20.7962 0 17.6667 0H12Z" fill="#FF7262"/>
<path id="Vector_4" fill-rule="evenodd" clip-rule="evenodd" d="M0.666992 5.66667C0.666992 8.79623 3.20404 11.3333 6.33366 11.3333H12.0003V0H6.33366C3.20404 0 0.666992 2.53705 0.666992 5.66667Z" fill="#F24E1E"/>
<path id="Vector_5" fill-rule="evenodd" clip-rule="evenodd" d="M0.666992 17.0002C0.666992 20.1297 3.20404 22.6668 6.33366 22.6668H12.0003V11.3335H6.33366C3.20404 11.3335 0.666992 13.8706 0.666992 17.0002Z" fill="#A259FF"/>
</g>
</svg>
