<svg width="38" height="34" viewBox="0 0 38 34" fill="none" xmlns="http://www.w3.org/2000/svg">
<g id="Google Drive Logo">
<path id="Vector" d="M19 10.9568L13.1141 0.569538C13.3095 0.370575 13.5343 0.240065 13.7592 0.152344C12.0236 0.723585 11.2272 2.67267 11.2272 2.67267L0.47454 21.6436C0.323247 22.2385 0.281223 22.7754 0.300135 23.2483H12.0362L19 10.9568Z" fill="#34A853"/>
<path id="Vector_2" d="M19 10.9568L25.9638 23.2483H37.6998C37.7187 22.7754 37.6767 22.2385 37.5253 21.6436L26.7728 2.67267C26.7728 2.67267 25.9743 0.723585 24.2406 0.152344C24.4634 0.240065 24.6903 0.370575 24.8857 0.569538L19 10.9568Z" fill="#FBBC05"/>
<path id="Vector_3" d="M19.0001 10.958L24.886 0.57077C24.6906 0.37179 24.4636 0.241281 24.241 0.153559C23.9845 0.070124 23.7093 0.0144947 23.4109 -0.000488281H23.0998H14.9005H14.5894C14.2932 0.0123519 14.0158 0.0679811 13.7593 0.153559C13.5367 0.241281 13.3097 0.37179 13.1143 0.57077L19.0001 10.958Z" fill="#188038"/>
<path id="Vector_4" d="M12.0373 23.2485L6.21868 33.5183C6.21868 33.5183 6.02537 33.4241 5.7627 33.2293C6.58853 33.8649 7.39123 33.9996 7.39123 33.9996H30.2434C31.5041 33.9996 31.7669 33.5183 31.7669 33.5183C31.771 33.5161 31.7732 33.5138 31.7772 33.5118L25.963 23.2485H12.0373Z" fill="#4285F4"/>
<path id="Vector_5" d="M12.0388 23.2485H0.302734C0.361578 24.6436 0.966765 25.4587 0.966765 25.4587L1.40804 26.2246C1.43957 26.2696 1.45848 26.2953 1.45848 26.2953L2.41879 27.9812L4.57476 31.7339C4.6378 31.8858 4.71136 32.0247 4.78911 32.1574C4.81852 32.2024 4.84583 32.2516 4.87736 32.2945C4.88576 32.3072 4.89417 32.3201 4.90258 32.3329C5.16945 32.7094 5.46784 33.0004 5.76622 33.2293C6.02889 33.4263 6.22223 33.5183 6.22223 33.5183L12.0388 23.2485Z" fill="#1967D2"/>
<path id="Vector_6" d="M25.9639 23.2485H37.6998C37.6409 24.6436 37.0358 25.4587 37.0358 25.4587L36.5945 26.2246C36.563 26.2696 36.5441 26.2953 36.5441 26.2953L35.5838 27.9812L33.4278 31.7339C33.3647 31.8858 33.2913 32.0247 33.2135 32.1574C33.1841 32.2024 33.1567 32.2516 33.1253 32.2945C33.1168 32.3072 33.1084 32.3201 33.0999 32.3329C32.8331 32.7094 32.5348 33.0004 32.2363 33.2293C31.9737 33.4263 31.7804 33.5183 31.7804 33.5183L25.9639 23.2485Z" fill="#EA4335"/>
</g>
</svg>
