<svg width="38" height="38" viewBox="0 0 38 38" fill="none" xmlns="http://www.w3.org/2000/svg">
<g id="Whatsapp Logo" clip-path="url(#clip0_1357_2436)">
<path id="Vector" fill-rule="evenodd" clip-rule="evenodd" d="M32.3883 5.51793C28.8364 1.96141 24.1123 0.00180442 19.0789 0C8.70708 0 0.265988 8.4402 0.262379 18.8147C0.260575 22.1312 1.1276 25.3684 2.77414 28.2212L0.104492 37.9723L10.0793 35.3559C12.8275 36.8554 15.922 37.6448 19.0708 37.6457H19.0789C29.4489 37.6457 37.891 29.2046 37.8945 18.83C37.8963 13.8021 35.9412 9.07536 32.3883 5.51883V5.51793ZM19.0789 34.4681H19.0726C16.2667 34.4673 13.5141 33.7129 11.1124 32.2883L10.5413 31.9492L4.62187 33.5018L6.20164 27.7303L5.82993 27.1385C4.26459 24.6485 3.43726 21.7703 3.43907 18.8157C3.44268 10.1932 10.4583 3.17759 19.0853 3.17759C23.2624 3.17939 27.1889 4.80789 30.1418 7.76444C33.0948 10.7201 34.7197 14.6502 34.7179 18.8283C34.7142 27.4516 27.6987 34.4673 19.0789 34.4673V34.4681ZM27.6571 22.7556C27.187 22.5201 24.8757 21.3833 24.4443 21.2264C24.0131 21.0693 23.7001 20.9909 23.3869 21.4618C23.0739 21.9328 22.1726 22.992 21.8983 23.305C21.624 23.619 21.3497 23.6578 20.8797 23.4223C20.4097 23.1868 18.8949 22.6906 17.0986 21.0892C15.7011 19.8423 14.7573 18.3032 14.4831 17.8322C14.2088 17.3613 14.4542 17.1068 14.6887 16.8732C14.8998 16.6621 15.1588 16.3237 15.3942 16.0494C15.6298 15.7751 15.7074 15.5785 15.8643 15.2654C16.0213 14.9514 15.9428 14.6772 15.8256 14.4417C15.7082 14.2062 14.7682 11.892 14.3757 10.951C13.994 10.0344 13.6061 10.1589 13.3183 10.1436C13.044 10.13 12.731 10.1273 12.417 10.1273C12.103 10.1273 11.5941 10.2446 11.1629 10.7156C10.7317 11.1865 9.51727 12.3242 9.51727 14.6375C9.51727 16.9507 11.2018 19.1874 11.4372 19.5013C11.6727 19.8153 14.7528 24.5636 19.4686 26.6008C20.5902 27.0853 21.4662 27.3749 22.1491 27.5915C23.2751 27.9496 24.3 27.8991 25.1102 27.7782C26.0134 27.6429 27.8917 26.6405 28.2833 25.5425C28.6748 24.4445 28.6748 23.5026 28.5576 23.3068C28.4403 23.111 28.1263 22.9928 27.6563 22.7574L27.6571 22.7556Z" fill="#25D366"/>
</g>
<defs>
<clipPath id="clip0_1357_2436">
<rect width="37.7901" height="38" fill="white" transform="translate(0.104492)"/>
</clipPath>
</defs>
</svg>
